<?xml version="1.0" encoding="utf-8"?>
<!-- Generator: Adobe Illustrator 19.2.0, SVG Export Plug-In . SVG Version: 6.00 Build 0)  -->
<svg version="1.1" id="Layer_1" xmlns="http://www.w3.org/2000/svg" xmlns:xlink="http://www.w3.org/1999/xlink" x="0px" y="0px"
	 viewBox="0 0 596.3 300.4" style="enable-background:new 0 0 596.3 300.4;" xml:space="preserve">
<style type="text/css">
	.st0{fill:#E31D3C;}
</style>
<title>Red Logo</title>
<desc>Created with Sketch.</desc>
<g id="Page-1">
	<g id="Red-Logo">
		<g id="hipo_logo_2017-03" transform="translate(340.000000, 248.000000)">
			<path id="Shape" class="st0" d="M195.1-156.6c-64.9-1.8-79.9-19-83.4-29.6v-0.4c0,0,0-0.4-0.4-0.9c0-0.9-0.4-1.3-0.4-2.2
				c0-0.9,0-1.3,0-1.8c4.9-4.9,7.5-11.9,6.2-19c-1.8-10.1-10.6-17.6-20.7-18.1c-6.2-0.4-12.4,2.2-16.8,6.2c-0.9,0.4-1.3,1.3-1.8,2.2
				v-1.3c0-0.4,0-0.9,0-1.8c0-13.7-11-24.7-24.7-24.7c-12.8,0-23.8,11.5-24.3,24.7c-6.6,0.9-12.4,3.5-19,6.6
				c-17.6-9.7-41-17.6-68.4-23.4c-25.1-5.3-52.1-7.9-75.9-7.9c-39.7,0-80.7,9.7-125.3,29.1c-10.1,4.5-21.6,10.2-31.7,17.7h-0.4
				l-13.7-15c0,0,0,0-0.4-0.4c-3.5-3.5-8.4-5.7-13.7-5.7c-5.3,0-10.1,1.8-14.1,5.7c-4,3.5-5.7,8.8-6.2,14.1c0,5.3,1.8,10.1,5.3,14.1
				l16.8,19c-4.4,5.7-8.4,12.4-10.1,15.4c0,0,0,0.4-0.4,0.4c-6.2,14.6-9.3,29.6-9.3,45.4c0,22.5,6.6,46.3,18.5,66.6
				c13.2,22.5,26.9,36.2,41.9,42.8l0.4,36.6c0,4.4,3.1,8.4,7.1,9.7c6.2,2.2,20.7,4.4,41.9,4.4s35.3-2.2,41.9-4.4
				c4.4-1.3,7.1-5.3,7.1-9.7V10.9c0-0.9,0.4-1.3,0.9-1.8c0.4-0.4,1.3-0.9,2.2-0.4c9.3,1.8,25.6,4.9,35.7,4.9
				c28.2,0,75.9-4.4,101.5-11.5c1.3-0.4,2.6,0,3.5,0.9s1.8,2.2,1.8,3.5v31.8c0,4.4,3.1,8.4,7.1,9.7c6.2,2.2,20.7,4.4,41.5,4.4
				c20.7,0,35.3-2.2,41.5-4.4c4.4-1.3,7.1-5.3,7.1-9.7V-2.3c0-1.8,0.9-3.1,2.6-4c5.3-2.6,10.1-6.6,13.2-11.9
				c15,2.6,32.2,6.2,49.9,11.9C270.5,37.9,296.1-153.5,195.1-156.6z"/>
		</g>
	</g>
</g>
</svg>
