<svg width="24" height="24" viewBox="0 0 24 24" fill="none" xmlns="http://www.w3.org/2000/svg">
<path d="M12 16C11.8022 16 11.6089 16.0586 11.4444 16.1685C11.28 16.2784 11.1518 16.4346 11.0761 16.6173C11.0004 16.8 10.9806 17.0011 11.0192 17.1951C11.0578 17.3891 11.153 17.5673 11.2929 17.7071C11.4327 17.847 11.6109 17.9422 11.8049 17.9808C11.9989 18.0194 12.2 17.9996 12.3827 17.9239C12.5654 17.8482 12.7216 17.72 12.8315 17.5556C12.9414 17.3911 13 17.1978 13 17C13 16.7348 12.8946 16.4804 12.7071 16.2929C12.5196 16.1054 12.2652 16 12 16Z"/>
<path d="M12 14L12 9" stroke-width="1.5" stroke-linecap="round" stroke-linejoin="round"/>
<path d="M13.3966 3.78635C13.2615 3.54879 13.0602 3.35015 12.8142 3.21165C12.5683 3.07316 12.2868 3 12 3C11.7132 3 11.4317 3.07316 11.1858 3.21165C10.9398 3.35015 10.7385 3.54879 10.6034 3.78635L2.17697 18.8671C2.05251 19.0892 1.99182 19.3378 2.00088 19.5887C2.00994 19.8395 2.08844 20.0837 2.22864 20.2974C2.37032 20.5125 2.56829 20.6901 2.80372 20.8131C3.03915 20.936 3.30418 21.0004 3.5736 21H20.4264C20.6956 21.0004 20.9605 20.9362 21.1959 20.8135C21.4313 20.6908 21.6294 20.5137 21.7714 20.2989C21.9116 20.0853 21.9901 19.841 21.9991 19.5902C22.0082 19.3394 21.9475 19.0907 21.823 18.8686L13.3966 3.78635Z" stroke-width="1.5" stroke-linecap="round" stroke-linejoin="round"/>
</svg>
